<?xml version="1.0" encoding="UTF-8" standalone="no"?>
<svg width="340px" height="420px" viewBox="0 0 340 420" version="1.1" xmlns="http://www.w3.org/2000/svg" xmlns:xlink="http://www.w3.org/1999/xlink" xmlns:sketch="http://www.bohemiancoding.com/sketch/ns">
    <!-- Generator: Sketch 3.3.3 (12081) - http://www.bohemiancoding.com/sketch -->
    <title>api2</title>
    <desc>Created with Sketch.</desc>
    <defs>
        <path id="path-1" d="M0,0 L128,0 L128,36 L0,36 L0,0 Z"></path>
        <path id="path-3" d="M0,0 L72,0 L72,40 L0,40 L0,0 Z"></path>
        <path id="path-5" d="M0,0 L72,0 L72,40 L0,40 L0,0 Z"></path>
    </defs>
    <g id="Page-1" stroke="none" stroke-width="1" fill="none" fill-rule="evenodd" sketch:type="MSPage">
        <g id="api2" sketch:type="MSLayerGroup">
            <g id="long-arrow-right---fontawesome" transform="translate(99.258819, 215.965926) rotate(-15.000000) translate(-99.258819, -215.965926) translate(68.258819, 91.965926)" fill="#FFFFFF" sketch:type="MSShapeGroup">
                <path d="M152.485231,136.24142 L135.475083,120.734605 C135.032111,120.380164 134.456246,120.291553 133.924679,120.513079 C133.393112,120.734605 133.083031,121.221962 133.083031,121.79793 L133.083031,131.722291 L-63.6542845,130.304525 C-64.4516351,130.304525 -65.0717968,130.924798 -65.0717968,131.722291 L-65.0717968,140.228887 C-65.0717968,141.02638 -64.4516351,141.646653 -63.6542845,141.646653 L133.083031,143.064418 L133.083031,152.98878 C133.083031,153.564747 133.437409,154.052104 133.924679,154.27363 C134.456246,154.495156 135.032111,154.406546 135.475083,154.007799 L152.485231,138.323764 C152.751014,138.057932 152.928203,137.659186 152.928203,137.260439 C152.928203,136.861692 152.751014,136.507251 152.485231,136.24142 Z" transform="translate(43.928203, 137.392305) rotate(-270.000000) translate(-43.928203, -137.392305) "></path>
                <path d="M127.308316,107.849115 L110.298169,92.3423002 C109.855196,91.9878587 109.279332,91.8992484 108.747765,92.1207743 C108.216198,92.3423002 107.906117,92.8296573 107.906117,93.4056247 L107.906117,103.329986 L-88.831199,101.91222 C-89.6285497,101.91222 -90.2487113,102.532493 -90.2487113,103.329986 L-90.2487113,111.836582 C-90.2487113,112.634075 -89.6285497,113.254348 -88.831199,113.254348 L107.906117,114.672114 L107.906117,124.596475 C107.906117,125.172442 108.260495,125.659799 108.747765,125.881325 C109.279332,126.102851 109.855196,126.014241 110.298169,125.615494 L127.308316,109.931459 C127.5741,109.665628 127.751289,109.266881 127.751289,108.868134 C127.751289,108.469388 127.5741,108.114946 127.308316,107.849115 Z" id="long-arrow-right---fontawesome-copy-2" transform="translate(18.751289, 109.000000) scale(1, -1) rotate(-270.000000) translate(-18.751289, -109.000000) "></path>
            </g>
            <g id="Rectangle-2-+-BACKEND-Copy" transform="translate(90.000000, 340.000000)">
                <rect id="Rectangle-2" fill="#008FDD" sketch:type="MSShapeGroup" x="0" y="0" width="160" height="80"></rect>
                <g id="API" transform="translate(16.000000, 22.000000)">
                    <g id="CLIENT">
                        <g>
                            <mask id="mask-2" sketch:name="Mask" fill="white">
                                <use xlink:href="#path-1"></use>
                            </mask>
                            <g id="Mask"></g>
                            <text sketch:type="MSTextLayer" mask="url(#mask-2)" font-family="AXIS Std" font-size="36" font-weight="473" sketch:alignment="middle" fill="#FFFFFF">
                                <tspan x="0.082" y="32">CLIENT</tspan>
                            </text>
                        </g>
                    </g>
                </g>
            </g>
            <g id="long-arrow-right---fontawesome" transform="translate(241.154863, 214.523148) scale(1, -1) rotate(-12.000000) translate(-241.154863, -214.523148) translate(211.154863, 91.023148)" fill="#FFFFFF" sketch:type="MSShapeGroup">
                <path d="M151.485231,136.24142 L134.475083,120.734605 C134.032111,120.380164 133.456246,120.291553 132.924679,120.513079 C132.393112,120.734605 132.083031,121.221962 132.083031,121.79793 L132.083031,131.722291 L-64.6542845,130.304525 C-65.4516351,130.304525 -66.0717968,130.924798 -66.0717968,131.722291 L-66.0717968,140.228887 C-66.0717968,141.02638 -65.4516351,141.646653 -64.6542845,141.646653 L132.083031,143.064418 L132.083031,152.98878 C132.083031,153.564747 132.437409,154.052104 132.924679,154.27363 C133.456246,154.495156 134.032111,154.406546 134.475083,154.007799 L151.485231,138.323764 C151.751014,138.057932 151.928203,137.659186 151.928203,137.260439 C151.928203,136.861692 151.751014,136.507251 151.485231,136.24142 Z" transform="translate(42.928203, 137.392305) rotate(-270.000000) translate(-42.928203, -137.392305) "></path>
                <path d="M126.308316,107.849115 L109.298169,92.3423002 C108.855196,91.9878587 108.279332,91.8992484 107.747765,92.1207743 C107.216198,92.3423002 106.906117,92.8296573 106.906117,93.4056247 L106.906117,103.329986 L-89.831199,101.91222 C-90.6285497,101.91222 -91.2487113,102.532493 -91.2487113,103.329986 L-91.2487113,111.836582 C-91.2487113,112.634075 -90.6285497,113.254348 -89.831199,113.254348 L106.906117,114.672114 L106.906117,124.596475 C106.906117,125.172442 107.260495,125.659799 107.747765,125.881325 C108.279332,126.102851 108.855196,126.014241 109.298169,125.615494 L126.308316,109.931459 C126.5741,109.665628 126.751289,109.266881 126.751289,108.868134 C126.751289,108.469388 126.5741,108.114946 126.308316,107.849115 Z" id="long-arrow-right---fontawesome-copy-2" transform="translate(17.751289, 109.000000) scale(1, -1) rotate(-270.000000) translate(-17.751289, -109.000000) "></path>
            </g>
            <g id="Rectangle-2-+-BACKEND-+-Rectangle-2-+-BACKEND">
                <g id="Rectangle-2-+-BACKEND">
                    <rect id="Rectangle-2" fill="#F6A623" sketch:type="MSShapeGroup" x="0" y="0" width="160" height="80"></rect>
                    <g id="API" transform="translate(44.000000, 20.000000)">
                        <mask id="mask-4" sketch:name="Mask" fill="white">
                            <use xlink:href="#path-3"></use>
                        </mask>
                        <g id="Mask"></g>
                        <text sketch:type="MSTextLayer" mask="url(#mask-4)" font-family="AXIS Std" font-size="40" font-weight="473" sketch:alignment="middle" fill="#FFFFFF">
                            <tspan x="0.88" y="35">API</tspan>
                        </text>
                    </g>
                </g>
                <g id="Rectangle-2-+-BACKEND" transform="translate(180.000000, 0.000000)">
                    <rect id="Rectangle-2" fill="#F6A623" sketch:type="MSShapeGroup" x="0" y="0" width="160" height="80"></rect>
                    <g id="API" transform="translate(44.000000, 20.000000)">
                        <mask id="mask-6" sketch:name="Mask" fill="white">
                            <use xlink:href="#path-5"></use>
                        </mask>
                        <g id="Mask"></g>
                        <text sketch:type="MSTextLayer" mask="url(#mask-6)" font-family="AXIS Std" font-size="40" font-weight="473" sketch:alignment="middle" fill="#FFFFFF">
                            <tspan x="0.88" y="35">API</tspan>
                        </text>
                    </g>
                </g>
            </g>
        </g>
    </g>
</svg>