<?xml version="1.0" encoding="UTF-8" standalone="no"?>
<svg width="1600px" height="420px" viewBox="0 0 1600 420" version="1.1" xmlns="http://www.w3.org/2000/svg" xmlns:xlink="http://www.w3.org/1999/xlink" xmlns:sketch="http://www.bohemiancoding.com/sketch/ns">
    <!-- Generator: Sketch 3.3.3 (12081) - http://www.bohemiancoding.com/sketch -->
    <title>api4</title>
    <desc>Created with Sketch.</desc>
    <defs>
        <path id="path-1" d="M0,0 L128,0 L128,36 L0,36 L0,0 Z"></path>
        <path id="path-3" d="M0,0 L72,0 L72,40 L0,40 L0,0 Z"></path>
        <path id="path-5" d="M0,0 L72,0 L72,40 L0,40 L0,0 Z"></path>
        <path id="path-7" d="M0,0 L72,0 L72,40 L0,40 L0,0 Z"></path>
        <path id="path-9" d="M0,0 L72,0 L72,40 L0,40 L0,0 Z"></path>
        <path id="path-11" d="M0,0 L72,0 L72,40 L0,40 L0,0 Z"></path>
        <path id="path-13" d="M0,0 L72,0 L72,40 L0,40 L0,0 Z"></path>
        <path id="path-15" d="M0,0 L72,0 L72,40 L0,40 L0,0 Z"></path>
        <path id="path-17" d="M0,0 L72,0 L72,40 L0,40 L0,0 Z"></path>
        <path id="path-19" d="M0,0 L72,0 L72,40 L0,40 L0,0 Z"></path>
    </defs>
    <g id="Page-1" stroke="none" stroke-width="1" fill="none" fill-rule="evenodd" sketch:type="MSPage">
        <g id="api4" sketch:type="MSLayerGroup">
            <g id="Rectangle-2-+-BACKEND-Copy" transform="translate(720.000000, 340.000000)">
                <rect id="Rectangle-2" fill="#008FDD" sketch:type="MSShapeGroup" x="0" y="0" width="160" height="80"></rect>
                <g id="API" transform="translate(16.000000, 22.000000)">
                    <g id="CLIENT">
                        <g>
                            <mask id="mask-2" sketch:name="Mask" fill="white">
                                <use xlink:href="#path-1"></use>
                            </mask>
                            <g id="Mask"></g>
                            <text sketch:type="MSTextLayer" mask="url(#mask-2)" font-family="AXIS Std" font-size="36" font-weight="473" sketch:alignment="middle" fill="#FFFFFF">
                                <tspan x="0.082" y="32">CLIENT</tspan>
                            </text>
                        </g>
                    </g>
                </g>
            </g>
            <g id="Rectangle-2-+-BACKEND">
                <rect id="Rectangle-2" fill="#F6A623" sketch:type="MSShapeGroup" x="0" y="0" width="160" height="80"></rect>
                <g id="API" transform="translate(44.000000, 20.000000)">
                    <mask id="mask-4" sketch:name="Mask" fill="white">
                        <use xlink:href="#path-3"></use>
                    </mask>
                    <g id="Mask"></g>
                    <text sketch:type="MSTextLayer" mask="url(#mask-4)" font-family="AXIS Std" font-size="40" font-weight="473" sketch:alignment="middle" fill="#FFFFFF">
                        <tspan x="0.88" y="35">API</tspan>
                    </text>
                </g>
            </g>
            <g id="Rectangle-2-+-BACKEND" transform="translate(180.000000, 0.000000)">
                <rect id="Rectangle-2" fill="#F6A623" sketch:type="MSShapeGroup" x="0" y="0" width="160" height="80"></rect>
                <g id="API" transform="translate(44.000000, 20.000000)">
                    <mask id="mask-6" sketch:name="Mask" fill="white">
                        <use xlink:href="#path-5"></use>
                    </mask>
                    <g id="Mask"></g>
                    <text sketch:type="MSTextLayer" mask="url(#mask-6)" font-family="AXIS Std" font-size="40" font-weight="473" sketch:alignment="middle" fill="#FFFFFF">
                        <tspan x="0.88" y="35">API</tspan>
                    </text>
                </g>
            </g>
            <g id="Rectangle-2-+-BACKEND-Copy-2" transform="translate(360.000000, 0.000000)">
                <rect id="Rectangle-2" fill="#F6A623" sketch:type="MSShapeGroup" x="0" y="0" width="160" height="80"></rect>
                <g id="API" transform="translate(44.000000, 20.000000)">
                    <mask id="mask-8" sketch:name="Mask" fill="white">
                        <use xlink:href="#path-7"></use>
                    </mask>
                    <g id="Mask"></g>
                    <text sketch:type="MSTextLayer" mask="url(#mask-8)" font-family="AXIS Std" font-size="40" font-weight="473" sketch:alignment="middle" fill="#FFFFFF">
                        <tspan x="0.88" y="35">API</tspan>
                    </text>
                </g>
            </g>
            <g id="Rectangle-2-+-BACKEND-Copy-5" transform="translate(540.000000, 0.000000)">
                <rect id="Rectangle-2" fill="#F6A623" sketch:type="MSShapeGroup" x="0" y="0" width="160" height="80"></rect>
                <g id="API" transform="translate(44.000000, 20.000000)">
                    <mask id="mask-10" sketch:name="Mask" fill="white">
                        <use xlink:href="#path-9"></use>
                    </mask>
                    <g id="Mask"></g>
                    <text sketch:type="MSTextLayer" mask="url(#mask-10)" font-family="AXIS Std" font-size="40" font-weight="473" sketch:alignment="middle" fill="#FFFFFF">
                        <tspan x="0.88" y="35">API</tspan>
                    </text>
                </g>
            </g>
            <g id="Rectangle-2-+-BACKEND-Copy-3" transform="translate(720.000000, 0.000000)">
                <rect id="Rectangle-2" fill="#F6A623" sketch:type="MSShapeGroup" x="0" y="0" width="160" height="80"></rect>
                <g id="API" transform="translate(44.000000, 20.000000)">
                    <mask id="mask-12" sketch:name="Mask" fill="white">
                        <use xlink:href="#path-11"></use>
                    </mask>
                    <g id="Mask"></g>
                    <text sketch:type="MSTextLayer" mask="url(#mask-12)" font-family="AXIS Std" font-size="40" font-weight="473" sketch:alignment="middle" fill="#FFFFFF">
                        <tspan x="0.88" y="35">API</tspan>
                    </text>
                </g>
            </g>
            <g id="Rectangle-2-+-BACKEND-Copy-4" transform="translate(900.000000, 0.000000)">
                <rect id="Rectangle-2" fill="#F6A623" sketch:type="MSShapeGroup" x="0" y="0" width="160" height="80"></rect>
                <g id="API" transform="translate(44.000000, 20.000000)">
                    <mask id="mask-14" sketch:name="Mask" fill="white">
                        <use xlink:href="#path-13"></use>
                    </mask>
                    <g id="Mask"></g>
                    <text sketch:type="MSTextLayer" mask="url(#mask-14)" font-family="AXIS Std" font-size="40" font-weight="473" sketch:alignment="middle" fill="#FFFFFF">
                        <tspan x="0.88" y="35">API</tspan>
                    </text>
                </g>
            </g>
            <g id="Rectangle-2-+-BACKEND-Copy-8" transform="translate(1080.000000, 0.000000)">
                <rect id="Rectangle-2" fill="#F6A623" sketch:type="MSShapeGroup" x="0" y="0" width="160" height="80"></rect>
                <g id="API" transform="translate(44.000000, 20.000000)">
                    <mask id="mask-16" sketch:name="Mask" fill="white">
                        <use xlink:href="#path-15"></use>
                    </mask>
                    <g id="Mask"></g>
                    <text sketch:type="MSTextLayer" mask="url(#mask-16)" font-family="AXIS Std" font-size="40" font-weight="473" sketch:alignment="middle" fill="#FFFFFF">
                        <tspan x="0.88" y="35">API</tspan>
                    </text>
                </g>
            </g>
            <g id="Rectangle-2-+-BACKEND-Copy-6" transform="translate(1260.000000, 0.000000)">
                <rect id="Rectangle-2" fill="#F6A623" sketch:type="MSShapeGroup" x="0" y="0" width="160" height="80"></rect>
                <g id="API" transform="translate(44.000000, 20.000000)">
                    <mask id="mask-18" sketch:name="Mask" fill="white">
                        <use xlink:href="#path-17"></use>
                    </mask>
                    <g id="Mask"></g>
                    <text sketch:type="MSTextLayer" mask="url(#mask-18)" font-family="AXIS Std" font-size="40" font-weight="473" sketch:alignment="middle" fill="#FFFFFF">
                        <tspan x="0.88" y="35">API</tspan>
                    </text>
                </g>
            </g>
            <g id="Rectangle-2-+-BACKEND-Copy-7" transform="translate(1440.000000, 0.000000)">
                <rect id="Rectangle-2" fill="#F6A623" sketch:type="MSShapeGroup" x="0" y="0" width="160" height="80"></rect>
                <g id="API" transform="translate(44.000000, 20.000000)">
                    <mask id="mask-20" sketch:name="Mask" fill="white">
                        <use xlink:href="#path-19"></use>
                    </mask>
                    <g id="Mask"></g>
                    <text sketch:type="MSTextLayer" mask="url(#mask-20)" font-family="AXIS Std" font-size="40" font-weight="473" sketch:alignment="middle" fill="#FFFFFF">
                        <tspan x="0.88" y="35">API</tspan>
                    </text>
                </g>
            </g>
            <path d="M690.32,202.06 L697.26,202.06 L697.26,204 L690.32,204 L690.32,202.06 Z M690.32,204.76 L697.26,204.76 L697.26,206.76 L690.32,206.76 L690.32,204.76 Z M694.26,209.1 L694.26,207.64 L698.36,207.64 L698.36,201.18 L693.68,201.18 C693.98,200.6 694.26,200.02 694.46,199.52 L693.26,199.28 C693.1,199.8 692.82,200.5 692.52,201.18 L689.24,201.18 L689.24,207.64 L693.2,207.64 L693.2,216.1 C693.2,216.36 693.1,216.48 692.8,216.5 C692.56,216.52 691.78,216.52 691.24,216.5 L691.38,217.5 C692.1,217.52 693.06,217.52 693.44,217.46 C694.08,217.36 694.26,216.96 694.26,216.28 L694.26,211.52 C695.36,213.88 696.96,215.58 698.74,216.58 L699.48,215.72 C698,214.98 696.64,213.78 695.62,212.12 C697,211.14 698.32,210.04 699.16,209.2 L698.44,208.48 C697.74,209.28 696.48,210.36 695.18,211.36 C694.82,210.68 694.5,209.92 694.26,209.1 L694.26,209.1 Z M685.5,208.94 C686.2,208.86 686.88,208.78 687.48,208.72 C687.66,209.08 687.8,209.44 687.92,209.76 L688.84,209.34 C688.46,208.3 687.64,206.88 686.64,205.68 L685.8,206.12 C686.24,206.66 686.66,207.26 687,207.86 C685.96,207.96 684.68,208.06 683.5,208.14 C685.28,205.86 686.96,203.38 688.02,201.58 L687.02,201.12 C686.46,202.2 685.6,203.56 684.62,205 C684.22,204.52 683.72,203.96 683.16,203.4 C684.06,202.14 684.94,200.76 685.48,199.72 L684.48,199.28 C684.06,200.22 683.28,201.52 682.46,202.74 C682.18,202.46 681.86,202.2 681.56,201.96 L680.96,202.72 C682.12,203.68 683.28,204.9 684.02,205.84 C683.44,206.64 682.84,207.46 682.24,208.22 C681.7,208.26 681.18,208.3 680.78,208.32 L681,209.36 C681.9,209.28 683.16,209.16 684.44,209.04 L684.44,217.5 L685.5,217.5 L685.5,208.94 Z M688.5,209.78 L688.5,210.68 L691.2,210.68 C690.56,213.02 689.08,214.86 687.24,215.96 C687.64,216.34 687.8,216.52 687.96,216.7 C690.12,215.3 691.78,212.96 692.36,209.92 L691.66,209.78 L691.56,209.78 L691.38,209.78 L688.5,209.78 Z M686.74,210.68 C687.18,211.82 687.54,213.18 687.66,214.14 L688.62,213.9 C688.48,212.96 688.12,211.6 687.64,210.42 C687.56,210.46 687.46,210.48 686.74,210.68 L686.74,210.68 Z M682.22,210.52 C682.02,212.3 681.48,214.12 680.8,215.5 L681.74,215.88 C682.4,214.44 682.94,212.54 683.18,210.68 L682.22,210.52 Z M717.06,205.98 C715.36,206.64 713.36,207.4 711.5,208.26 C711.02,206.96 710.26,206.36 709.18,206.36 C707.84,206.36 706.48,206.96 705.1,207.86 C705.84,206.98 706.84,205.38 707.68,203.52 L714.96,203.52 L714.96,202.48 L708.14,202.48 C708.46,201.68 708.74,200.86 708.96,200.04 L707.76,199.8 C707.58,200.64 707.28,201.54 706.9,202.48 L702.16,202.48 L702.16,203.52 L706.42,203.52 C705.22,206.08 703.46,208.66 701.72,210.32 L702.62,211.08 C703.16,210.46 703.94,209.7 704.38,209.34 C705.96,208.06 707.52,207.32 708.98,207.32 C709.64,207.32 710.16,207.76 710.52,208.74 C707.7,210.14 705.42,211.82 705.42,213.78 C705.42,215.82 707.6,216.88 711.48,216.88 C713.12,216.88 715.36,216.78 716.72,216.54 L716.6,215.42 C715.3,215.7 712.94,215.82 711.46,215.82 C708.12,215.82 706.58,215.06 706.58,213.74 C706.58,212.32 708.4,210.96 710.78,209.76 C710.94,210.54 711.02,211.52 711,212.72 L711,213.52 L712.12,213.52 C712.12,211.78 712,210.36 711.78,209.28 C713.62,208.42 715.7,207.66 717.5,207.02 L717.06,205.98 Z M735.62,199.28 L735.62,217.52 L736.78,217.52 L736.78,199.28 L735.62,199.28 Z M729.18,208.42 L723.3,208.42 C723.54,207.42 723.78,206.34 723.98,205.34 L730.28,205.34 L730.28,199.94 L722.36,199.94 L722.36,200.9 L729.16,200.9 L729.16,204.36 L724.18,204.36 L723.44,204.36 L723.06,204.36 C722.74,206.24 722.1,209 721.64,210.52 L722.76,210.58 C722.84,210.26 722.94,209.86 723.06,209.44 L729.12,209.44 C728.88,213.8 728.58,215.92 728.14,216.26 C727.98,216.38 727.8,216.42 727.52,216.44 C726.84,216.46 725.36,216.42 724.48,216.36 L724.62,217.44 C725.52,217.48 727.06,217.52 727.78,217.5 C728.28,217.48 728.66,217.38 728.96,217.18 C729.64,216.68 730.02,213.9 730.34,208.42 L729.78,208.42 L729.18,208.42 Z M753.5,199.66 C751.74,201.74 747,205.92 744.32,207.74 C743.96,207.98 743.78,208.32 743.78,208.6 C743.78,208.92 743.92,209.18 744.26,209.4 C748.08,211.86 752.1,214.88 754.24,217.2 L755.26,216.32 C753.14,214.16 749.46,211.42 745.54,208.86 C745.44,208.78 745.36,208.68 745.36,208.56 C745.36,208.46 745.42,208.34 745.58,208.24 C748.22,206.4 752.6,202.54 754.48,200.46 L753.5,199.66 Z M769.34,202.74 C769.18,209.86 766.94,214.26 765.16,214.26 C764,214.26 763.02,212.26 763.02,210.14 C763.02,206.54 765.46,203.26 769.34,202.74 L769.34,202.74 Z M761.88,210.16 C761.88,213 763.36,215.52 765.14,215.52 C767.86,215.52 770.28,210.34 770.52,202.66 C774.56,202.7 776.78,204.98 776.78,208.6 C776.78,212.02 775.2,214.56 770.18,215.48 L770.74,216.62 C776.16,215.46 778.02,212.48 778.02,208.6 C778.02,204.46 775.54,201.54 770.34,201.54 C765.38,201.54 761.88,205.72 761.88,210.14 L761.88,210.16 Z M796.84,199.28 C797.66,200.02 798.4,200.84 799.02,201.8 L799.64,201.3 C798.94,200.34 798.28,199.56 797.4,198.8 L796.84,199.28 Z M794.9,200.48 C795.74,201.22 796.46,202.02 797.08,202.98 L797.72,202.5 C797.02,201.52 796.36,200.76 795.48,199.98 L794.9,200.48 Z M795.46,203.38 L794.52,204.02 C796.72,206.26 797.86,209.16 798.24,211.78 L799.4,211.5 C799.02,208.9 797.78,205.78 795.46,203.38 L795.46,203.38 Z M781.7,205.16 L781.9,206.28 C783.18,206.04 784.76,205.84 786.26,205.7 C785.22,209.54 783.72,213.02 782,215.4 L783.04,215.96 C784.78,213.42 786.34,209.68 787.4,205.6 C788.22,205.54 788.94,205.5 789.52,205.5 C791.36,205.5 792.08,206.48 792.08,208.7 C792.08,211.4 791.64,214.1 790.98,215.08 C790.54,215.74 790.16,215.84 789.28,215.82 C788.68,215.82 787.64,215.7 786.84,215.46 L786.74,216.58 C787.64,216.8 788.66,216.92 789.46,216.92 C790.62,216.94 791.34,216.72 791.94,215.74 C792.68,214.56 793.24,211.64 793.24,208.68 C793.24,205.8 792.1,204.42 789.62,204.42 C789.08,204.42 788.42,204.46 787.68,204.5 C788.04,203.04 788.34,201.52 788.54,200.02 L787.38,199.88 C787.18,201.46 786.9,203.06 786.52,204.6 C784.9,204.74 783.1,204.96 781.7,205.16 L781.7,205.16 Z M807.76,208.24 L807.76,205.56 L812.08,205.56 L812.08,208.24 L807.76,208.24 Z M807.76,211.94 L807.76,209.2 L812.08,209.2 L812.08,211.94 L807.76,211.94 Z M816.58,216.72 L816.58,217.5 L817.74,217.5 L817.74,204.52 L809.76,204.52 C810.2,203.42 810.58,202.26 810.88,201.32 L819.08,201.32 L819.08,200.26 L800.88,200.26 L800.88,201.32 L809.52,201.32 C809.3,202.24 808.94,203.42 808.56,204.52 L802.26,204.52 L802.26,217.5 L803.36,217.5 L803.36,216.72 L816.58,216.72 Z M813.16,215.68 L813.16,205.56 L816.58,205.56 L816.58,215.68 L813.16,215.68 Z M807.76,215.68 L807.76,212.88 L812.08,212.88 L812.08,215.68 L807.76,215.68 Z M803.36,215.68 L803.36,205.56 L806.7,205.56 L806.7,215.68 L803.36,215.68 Z M837.44,199.28 L837.44,215.72 C837.44,216.16 837.32,216.4 836.82,216.44 C836.52,216.46 835.58,216.46 834.9,216.42 L835.08,217.48 C835.92,217.52 836.94,217.52 837.38,217.46 C838.26,217.32 838.5,216.78 838.5,215.88 L838.5,199.28 L837.44,199.28 Z M833.9,201.6 L833.9,213.06 L834.9,213.06 L834.9,201.6 L833.9,201.6 Z M824.16,204.14 C824.78,202.6 825.3,201.04 825.66,199.52 L824.6,199.28 C823.86,202.58 822.38,206.08 820.46,208.92 L821.1,209.86 C821.82,208.78 822.5,207.64 823.08,206.46 L823.08,217.5 L824.16,217.5 L824.16,204.14 Z M825.12,206.08 L825.34,207.08 C827.02,206.88 829.96,206.5 831.9,206.22 C832.1,206.62 832.28,206.98 832.42,207.36 C832.52,207.32 832.6,207.26 833.38,206.94 C832.84,205.68 831.96,204.28 830.76,202.78 L829.94,203.22 C830.52,203.96 831.02,204.68 831.44,205.38 C830.2,205.52 828.64,205.7 827.3,205.84 C827.96,204.28 828.6,202.58 829.02,201.28 L833.08,201.28 L833.08,200.28 L825.62,200.28 L825.62,201.28 L827.9,201.28 C827.5,202.6 826.88,204.38 826.22,205.96 C825.8,206 825.44,206.04 825.12,206.08 L825.12,206.08 Z M825.26,215.42 L825.56,216.46 C827.52,216.04 831.02,215.26 833.24,214.74 C833.18,213.96 833.18,213.88 833.16,213.8 C832.18,214.02 830.94,214.28 829.68,214.54 L829.68,210.84 L832.64,210.84 L832.64,209.86 L829.68,209.86 L829.68,207.06 L828.62,207.06 L828.62,209.86 L825.66,209.86 L825.66,210.84 L828.62,210.84 L828.62,214.76 C827.34,215.04 826.12,215.28 825.26,215.42 L825.26,215.42 Z M853.5,199.66 C851.74,201.74 847,205.92 844.32,207.74 C843.96,207.98 843.78,208.32 843.78,208.6 C843.78,208.92 843.92,209.18 844.26,209.4 C848.08,211.86 852.1,214.88 854.24,217.2 L855.26,216.32 C853.14,214.16 849.46,211.42 845.54,208.86 C845.44,208.78 845.36,208.68 845.36,208.56 C845.36,208.46 845.42,208.34 845.58,208.24 C848.22,206.4 852.6,202.54 854.48,200.46 L853.5,199.66 Z M862.3,205.04 C862.96,205.06 863.66,205.06 864.4,205.06 C866.58,205.06 869.06,204.98 871.42,204.8 C872.2,206.92 873.24,208.8 874.24,209.92 C872.36,209.28 870.24,208.86 868.1,208.86 C865.3,208.86 863.38,210.36 863.38,212.56 C863.38,215.42 866,216.94 871.4,216.94 C872.2,216.94 873.14,216.92 874.06,216.84 L874.12,215.72 C873.12,215.82 872.18,215.84 871.36,215.84 C866.8,215.84 864.58,214.78 864.58,212.64 C864.58,211 865.88,209.9 868.28,209.9 C870.66,209.9 872.98,210.42 875.34,211.44 L876.14,210.52 C874.7,209.16 873.46,207.02 872.6,204.72 C874.6,204.54 876.48,204.32 877.98,204.02 L877.74,202.94 C876.24,203.26 874.3,203.5 872.24,203.68 C871.82,202.4 871.52,201.08 871.38,199.84 L870.16,199.98 C870.34,201.24 870.64,202.52 871.04,203.76 C868.86,203.92 866.6,204 864.62,204 C863.78,204 863.02,203.98 862.3,203.94 L862.3,205.04 Z M893.44,202.68 C896.1,205.22 897.1,208.28 897.16,212.58 L898.44,212.46 C898.3,208.06 897.28,204.82 894.42,202 L893.44,202.68 Z M882.56,202.32 C882.46,203.92 882.42,205.46 882.42,206.78 C882.42,212.48 884.82,216 886.9,216 C888.34,216 889.34,214.26 890.12,211.38 L889.1,210.94 C888.56,213.12 887.78,214.7 886.84,214.7 C885.4,214.7 883.6,211.56 883.6,206.74 C883.6,205.48 883.68,203.96 883.8,202.42 L882.56,202.32 Z M903.34,209.28 C903.84,209.28 904.22,208.9 904.22,208.4 C904.22,207.9 903.84,207.52 903.34,207.52 C902.84,207.52 902.46,207.9 902.46,208.4 C902.46,208.9 902.84,209.28 903.32,209.28 L903.34,209.28 Z M910,209.28 C910.5,209.28 910.88,208.9 910.88,208.4 C910.88,207.9 910.5,207.52 910,207.52 C909.5,207.52 909.12,207.9 909.12,208.4 C909.12,208.9 909.5,209.28 909.98,209.28 L910,209.28 Z M916.68,209.28 C917.18,209.28 917.56,208.9 917.56,208.4 C917.56,207.9 917.18,207.52 916.68,207.52 C916.18,207.52 915.8,207.9 915.8,208.4 C915.8,208.9 916.18,209.28 916.66,209.28 L916.68,209.28 Z" id="線を引くのが面倒くさい…" fill="#FFFFFF" sketch:type="MSShapeGroup"></path>
        </g>
    </g>
</svg>